{"title":"About.Last.Night.2014.720p.BRRip.x264.AC3-MiLLENiUM","uid":10083754,"size":2973065584,"categoryP":"video","categoryS":"hd___movies","magnet":"?xt=urn:btih:92e6c46bf41f5993d182731abaff22bece9cd5d2&amp;dn=About.Last.Night.2014.720p.BRRip.x264.AC3-MiLLENiUM&amp;tr=udp%3A%2F%2Ftracker.openbittorrent.com%3A80&amp;tr=udp%3A%2F%2Fopen.demonii.com%3A1337&amp;tr=udp%3A%2F%2Ftracker.coppersurfer.tk%3A6969&amp;tr=udp%3A%2F%2Fexodus.desync.com%3A6969","seeders":1,"leechers":1,"uploader":"lokioddin","files":3,"time":1399057740,"description":"SilverTorrent - Clean And Verified Torrents Download\n\n\n\nAbout Last Night 2014 720p BRRip x264 AC3-MiLLENiUM\n\n\nAudio :\n\nDuration                                 : 1h 40mn\nBit rate                                 : 3 208 Kbps\nWidth                                    : 1 280 pixels\nHeight                                   : 528 pixels\nDisplay aspect ratio                     : 2.40:1\nFrame rate mode                          : Constant\nFrame rate                               : 23.976 fps\nColor space                              : YUV\nChroma subsampling                       : 4:2:0\nBit depth                                : 8 bits\nScan type                                : Progressive\nBits/(Pixel*Frame)                       : 0.198\n\n\nDuration                                 : 1h 40mn\nBit rate mode                            : Constant\nBit rate                                 : 640 Kbps\nChannel(s)                               : 6 channels\nChannel positions                        : Front: L C R, Side: L R, LFE\nSampling rate                            : 48.0 KHz\nBit depth                                : 16 bits\nCompression mode                         : Lossy\nStream size                              : 459 MiB (16%)\nLanguage                                 : English\nDefault                                  : Yes\nForced                                   : No\n\nText #1\nID                                       : 3\nFormat                                   : VobSub\nMuxing mode                              : zlib\nCodec ID                                 : S_VOBSUB\nCodec ID/Info                            : The same subtitle format used on DVDs\nLanguage                                 : English\nDefault                                  : No\nForced                                   : No\n\nText #2\nID                                       : 4\nFormat                                   : VobSub\nMuxing mode                              : zlib\nCodec ID                                 : S_VOBSUB\nCodec ID/Info                            : The same subtitle format used on DVDs\nLanguage                                 : English\nDefault                                  : No\nForced                                   : No\n\nText #3\nID                                       : 5\nFormat                                   : VobSub\nMuxing mode                              : zlib\nCodec ID                                 : S_VOBSUB\nCodec ID/Info                            : The same subtitle format used on DVDs\nLanguage                                 : English\nDefault                                  : No\nForced                                   : No\n\nText #4\nID                                       : 6\nFormat                                   : VobSub\nMuxing mode                              : zlib\nCodec ID                                 : S_VOBSUB\nCodec ID/Info                            : The same subtitle format used on DVDs\nLanguage                                 : English\nDefault                                  : No\nForced                                   : No\n\nText #5\nID                                       : 7\nFormat                                   : VobSub\nMuxing mode                              : zlib\nCodec ID                                 : S_VOBSUB\nCodec ID/Info                            : The same subtitle format used on DVDs\nLanguage                                 : French\nDefault                                  : No\nForced                                   : No\n\nText #6\nID                                       : 8\nFormat                                   : VobSub\nMuxing mode                              : zlib\nCodec ID                                 : S_VOBSUB\nCodec ID/Info                            : The same subtitle format used on DVDs\nLanguage                                 : Spanish\nStream size                              : 2.25 GiB (82%)\n\n\nScareen Shots\n\n\n[img]http://i.imgur.com/M2cJARt.jpg[/img]\n","torrent":{"xt":"urn:btih:92e6c46bf41f5993d182731abaff22bece9cd5d2","amp;dn":"About.Last.Night.2014.720p.BRRip.x264.AC3-MiLLENiUM","amp;tr":["udp%3A%2F%2Ftracker.openbittorrent.com%3A80","udp%3A%2F%2Fopen.demonii.com%3A1337","udp%3A%2F%2Ftracker.coppersurfer.tk%3A6969","udp%3A%2F%2Fexodus.desync.com%3A6969"],"infoHash":"92e6c46bf41f5993d182731abaff22bece9cd5d2","infoHashBuffer":{"type":"Buffer","data":[146,230,196,107,244,31,89,147,209,130,115,26,186,255,34,190,206,156,213,210]},"announce":[],"urlList":[]}}